<svg width="444" height="240" viewBox="0 0 444 240" fill="none" xmlns="http://www.w3.org/2000/svg">
<path d="M215.113 220.636C172.404 220.636 93.3132 248.762 68.7951 231.266C59.7772 224.831 33.7941 197.42 17.3067 166.5C29.2044 182.167 58.9 213.9 82.5 215.5C112 217.5 163.704 197 215.113 196.5C266.522 196 301 191 350.5 196.5C396.329 201.592 434.597 197.684 440.149 163.745C440.466 160.883 440.699 157.964 440.84 155C440.828 158.115 440.594 161.027 440.149 163.745C436.988 192.24 425.439 215.072 412.445 220.636C392.83 229.034 314.768 213.637 215.113 220.636Z" fill="#A76363"/>
<path d="M423.913 82.6648C437.429 105.793 441.945 131.787 440.84 155C440.828 158.115 440.594 161.027 440.149 163.745C440.466 160.883 440.699 157.964 440.84 155C441.945 131.787 437.429 105.793 423.913 82.6648Z" fill="#BE2D2D"/>
<path d="M215.113 220.636V223.136H215.201L215.288 223.129L215.113 220.636ZM68.7951 231.266L67.3429 233.301L67.3429 233.301L68.7951 231.266ZM20.1541 82.6648L18.5943 80.7111L18.5943 80.7111L20.1541 82.6648ZM423.913 82.6648L421.755 83.9262L421.755 83.9262L423.913 82.6648ZM412.445 220.636L411.461 218.337L411.461 218.337L412.445 220.636ZM17.3067 166.5L15.1007 167.676L17.3067 166.5ZM82.5 215.5L82.6691 213.006L82.5 215.5ZM440.84 155L438.343 154.881L438.343 154.881L440.84 155ZM438.943 169.067L441.34 169.775L441.34 169.775L438.943 169.067ZM215.113 218.136C204.209 218.136 191.08 219.926 177.259 222.293C170.334 223.478 163.2 224.815 156.053 226.155C148.898 227.496 141.731 228.841 134.709 230.048C120.643 232.467 107.282 234.313 95.9566 234.487C84.5218 234.662 75.6858 233.112 70.2472 229.231L67.3429 233.301C74.1634 238.168 84.408 239.664 96.0332 239.486C107.767 239.307 121.446 237.402 135.556 234.976C142.622 233.761 149.827 232.409 156.974 231.07C164.128 229.728 171.224 228.399 178.103 227.221C191.89 224.86 204.663 223.136 215.113 223.136V218.136ZM21.7139 84.6185C47.7003 63.8716 90.9991 42.2437 136.852 27.1772C182.739 12.0993 230.736 3.7417 266.145 9.15224L266.9 4.20961C230.336 -1.37752 181.446 7.26129 135.291 22.427C89.1023 37.604 45.2034 59.467 18.5943 80.7111L21.7139 84.6185ZM266.145 9.15224C338.305 20.1786 390.012 29.6086 421.755 83.9262L426.072 81.4034C392.96 24.7445 338.685 15.1786 266.9 4.20961L266.145 9.15224ZM411.461 218.337C409.362 219.236 406.299 219.883 402.187 220.271C398.108 220.655 393.16 220.771 387.384 220.695C375.819 220.542 361.184 219.629 343.934 218.664C309.492 216.739 264.931 214.631 214.938 218.142L215.288 223.129C264.95 219.642 309.248 221.733 343.655 223.657C360.828 224.617 375.615 225.54 387.318 225.694C393.175 225.771 398.323 225.657 402.656 225.249C406.957 224.843 410.624 224.135 413.429 222.934L411.461 218.337ZM70.2472 229.231C65.9999 226.2 57.4119 217.933 47.7658 206.456C38.1603 195.027 27.6529 180.589 19.5126 165.324L15.1007 167.676C23.448 183.33 34.1758 198.058 43.9381 209.673C53.6599 221.24 62.5723 229.897 67.3429 233.301L70.2472 229.231ZM19.5126 165.324C11.6123 150.508 6.04509 135.104 5.5378 121.011C5.035 107.043 9.48699 94.3803 21.7139 84.6185L18.5943 80.7111C4.94545 91.6081 -0.00969285 105.891 0.541033 121.191C1.08726 136.365 7.03423 152.549 15.1007 167.676L19.5126 165.324ZM15.3157 168.012C21.3528 175.961 31.8724 187.95 43.895 198.179C55.8044 208.312 69.6652 217.136 82.3309 217.994L82.6691 213.006C71.7348 212.264 58.9478 204.421 47.135 194.371C35.4354 184.417 25.1583 172.705 19.2976 164.988L15.3157 168.012ZM82.3309 217.994C90.0022 218.514 98.9955 217.569 108.851 215.911C118.72 214.251 129.625 211.844 141.115 209.382C164.169 204.441 189.718 199.247 215.138 199L215.089 194C189.1 194.253 163.092 199.559 140.067 204.493C128.517 206.968 117.752 209.343 108.022 210.98C98.28 212.619 89.7478 213.486 82.6691 213.006L82.3309 217.994ZM215.138 199C266.889 198.497 300.913 193.506 350.224 198.985L350.776 194.015C301.087 188.494 266.155 193.503 215.089 194L215.138 199ZM421.755 83.9262C434.983 106.562 439.43 132.057 438.343 154.881L443.337 155.119C444.461 131.517 439.875 105.024 426.072 81.4034L421.755 83.9262ZM438.343 154.881C437.583 170.85 434.117 185.421 429.138 196.691C424.108 208.076 417.735 215.651 411.461 218.337L413.429 222.934C421.453 219.498 428.505 210.495 433.712 198.712C438.968 186.814 442.551 171.628 443.337 155.119L438.343 154.881ZM350.224 198.985C375.019 201.74 398.057 201.935 415.009 195.919C423.544 192.889 430.658 188.244 435.634 181.454C440.617 174.656 443.299 165.924 443.34 155.01L438.34 154.99C438.302 165.076 435.838 172.719 431.602 178.499C427.359 184.287 421.179 188.423 413.336 191.206C397.533 196.815 375.481 196.76 350.776 194.015L350.224 198.985ZM438.343 154.881C438.204 157.793 437.976 160.66 437.664 163.47L442.634 164.021C442.957 161.107 443.194 158.136 443.337 155.119L438.343 154.881ZM437.664 163.47C436.111 177.475 432.501 190.019 427.742 199.685C422.938 209.44 417.149 215.902 411.461 218.337L413.429 222.934C420.735 219.806 427.217 212.069 432.227 201.894C437.281 191.63 441.027 178.51 442.634 164.021L437.664 163.47ZM350.224 198.985C373.2 201.538 394.634 201.887 411.117 197.162C419.395 194.79 426.544 191.105 432.007 185.669C437.495 180.208 441.151 173.108 442.616 164.149L437.682 163.342C436.371 171.352 433.161 177.467 428.48 182.125C423.774 186.808 417.452 190.145 409.74 192.356C394.243 196.797 373.628 196.554 350.776 194.015L350.224 198.985ZM442.616 164.149C443.084 161.288 443.328 158.244 443.34 155.01L438.34 154.99C438.329 157.986 438.103 160.765 437.682 163.342L442.616 164.149ZM350.224 198.985C371.95 201.399 392.278 201.839 408.345 197.898C424.513 193.933 436.722 185.413 441.34 169.775L436.545 168.359C432.593 181.74 422.237 189.343 407.154 193.042C391.97 196.766 372.362 196.414 350.776 194.015L350.224 198.985ZM441.34 169.775C441.869 167.985 442.295 166.11 442.616 164.149L437.682 163.342C437.393 165.108 437.012 166.778 436.545 168.359L441.34 169.775Z" fill="#A76363"/>
<path d="M266.522 4.68092C194.55 -6.31674 72.7496 38.6737 20.1541 80.6648C-5.72169 101.324 1.33986 134.557 17.3067 164.5C29.2044 180.167 58.9 211.9 82.5 213.5C112 215.5 163.704 195 215.113 194.5C266.522 194 301 189 350.5 194.5C400 200 440.68 195 440.84 153C441.945 129.787 437.429 103.793 423.913 80.6648C391.486 25.1766 338.495 15.6786 266.522 4.68092Z" fill="#CE8464" stroke="#A76363" stroke-width="5"/>
<path d="M188.502 181.268C195.502 163.268 185.002 25.2683 152.002 29.851C173.05 48.7682 173.502 58.2682 180.002 95.7682C189.012 147.75 184.43 170.019 188.502 181.268Z" fill="#A76363" stroke="#A76363" stroke-width="5"/>
<path d="M101.891 196.676C106.402 180.434 85.266 61.4981 57.0053 68.3519C76.9324 82.9482 78.1522 91.1594 87.0629 123.161C99.4147 167.521 97.3745 187.261 101.891 196.676Z" fill="#A76363" stroke="#A76363" stroke-width="5"/>
<path d="M241.008 19.169C258.853 48.3515 283.583 119.918 278.865 176.516C303.411 165.124 257.587 6.86737 241.008 19.169Z" fill="#A76363" stroke="#A76363" stroke-width="5"/>
<path d="M339.799 36.8821C365.372 64.5085 393.157 125.581 384.593 178.067C398.279 173.725 376.071 40.8884 339.799 36.8821Z" fill="#A76363" stroke="#A76363" stroke-width="5"/>
</svg>
