<svg width="370" height="467" viewBox="0 0 370 467" fill="none" xmlns="http://www.w3.org/2000/svg">
<path d="M189.714 67.0986C185.347 71.4295 149.056 121.001 139.9 186.173C138.116 198.87 70.3284 182.539 105.725 147.436C149.972 103.558 152.436 51.516 160.629 48.1146C168.822 44.7132 195.173 61.685 189.714 67.0986Z" fill="#A7DF6F" stroke="#99C073" stroke-width="5"/>
<path d="M89.7028 56.7321C92.7168 62.232 104.378 123.34 100.041 186.338C99.1955 198.611 161.854 207.316 137.424 162.738C106.887 107.015 113.438 47.1107 106.886 41.1265C100.334 35.1423 85.9352 49.8572 89.7028 56.7321Z" fill="#A7DF6F" stroke="#99C073" stroke-width="5"/>
<path d="M115.365 50.5499C116.901 56.5498 123.946 117.762 103.546 177.225C99.5717 188.81 158.598 212.103 146.149 163.472C130.586 102.683 150.606 57.8412 145.735 50.533C140.864 43.2248 113.445 43.05 115.365 50.5499Z" fill="#A7DF6F" stroke="#99C073" stroke-width="5"/>
<path d="M168.364 145.964C143.249 116.653 110.99 118.523 84.8035 135.937C47.2184 160.931 58.6777 343.184 66.9627 386.188C74.2994 424.27 101.417 422.714 114.176 408.53C128.327 392.799 215.896 201.439 168.364 145.964Z" fill="#F28D61" stroke="#CD673D" stroke-width="5"/>
<path d="M61.0296 217.363C76.7217 221.403 110.176 229.084 118.456 227.49" stroke="#CD673D" stroke-width="5"/>
<path d="M59.1476 270.117C62.4912 271.462 72.6773 274.652 86.6727 276.655" stroke="#CD673D" stroke-width="5"/>
<path d="M180.475 179.122C163.81 162.967 122.443 161.238 115.809 165.295" stroke="#CD673D" stroke-width="5"/>
<path d="M127.402 385.48C127.179 387.34 122.48 389.419 105.474 382.849" stroke="#CD673D" stroke-width="5"/>
<path d="M202.421 55.9435C204.741 61.5888 219.217 121.107 204.238 185.004C201.32 197.452 266.894 207.527 248.088 161.771C224.58 104.576 240.818 55.3566 234.793 49.1499C228.769 42.9431 199.52 48.887 202.421 55.9435Z" fill="#A7DF6F" stroke="#99C073" stroke-width="5"/>
<path d="M294.311 83.5485C289.706 87.5313 257.801 139.907 239.341 199.993C235.744 211.699 177.392 196.456 214.712 164.174C261.363 123.822 276.777 65.7836 284.674 62.6683C292.571 59.5529 300.066 78.57 294.311 83.5485Z" fill="#A7DF6F" stroke="#99C073" stroke-width="5"/>
<path d="M273.86 68.2584C270.383 73.2555 242.513 127.446 239.472 190.23C238.88 202.462 178.57 202.11 206.757 161.607C241.99 110.979 240.194 61.9085 247.076 56.9384C253.958 51.9684 278.207 62.0121 273.86 68.2584Z" fill="#A7DF6F" stroke="#99C073" stroke-width="5"/>
<path d="M188.59 435.054C203.319 419.33 303.386 223.229 264.193 162.209C262.471 159.529 260.595 156.994 258.594 154.616C244.91 138.355 225.392 129.406 209.606 131.082C199.933 132.109 191.661 137.125 186.99 146.892C146.552 231.444 142.884 363.204 146.552 408.873C149.799 449.315 175.311 449.23 188.59 435.054Z" fill="#F28D61" stroke="#CD673D" stroke-width="5"/>
<path d="M201.703 276.015C215.996 281.159 246.557 291.145 254.453 289.942" stroke="#CD673D" stroke-width="5"/>
<path d="M150.259 286.441C153.258 288.046 162.483 291.981 175.383 294.887" stroke="#CD673D" stroke-width="5"/>
<path d="M232.359 199.721C218.305 181.79 179.778 177.607 173.188 181.492" stroke="#CD673D" stroke-width="5"/>
<path d="M219.221 374.799C218.836 376.741 214.244 378.657 198.962 370.779" stroke="#CD673D" stroke-width="5"/>
</svg>
