<svg width="453" height="194" viewBox="0 0 453 194" fill="none" xmlns="http://www.w3.org/2000/svg">
<path d="M172.471 32.7573C98.3485 25.7237 39.916 69.0521 19.9651 91.5955C-20.9512 139.613 19.9651 167.003 60.205 184.249C100.445 201.495 257.685 185.263 306.379 134.203C355.073 83.1417 265.124 41.5492 172.471 32.7573Z" fill="#D7AC6B" stroke="#7D633C" stroke-width="5"/>
<path d="M186.673 70.9683C202.905 86.8614 200.538 88.5522 195.803 91.2574M78.4651 91.2574C82.6357 94.977 90.0975 104.31 86.5808 111.885" stroke="#7D633C" stroke-width="5"/>
<path d="M213.049 136.908C226.575 149.419 206.963 164.636 200.199 162.269" stroke="#7D633C" stroke-width="5"/>
<path d="M356.789 3C261.988 2.99998 233.026 36.1387 234.04 103.093C234.04 105.911 235.022 119.406 236.407 125.749C242.832 155.168 243.697 150.395 274.618 175.795C303.023 199.127 330.751 192.703 371.667 177.148C412.583 161.593 443.017 131.159 448.428 110.87C453.838 90.5811 450.119 3.00002 356.789 3Z" fill="#D7AC6B" stroke="#7D633C" stroke-width="5"/>
<path d="M342.899 46.2833C355.636 43.0145 380.704 47.2301 379.081 55.0752" stroke="#7D633C" stroke-width="5"/>
<path d="M302.997 159.226C331.402 171.061 341.547 173.766 342.223 162.607" stroke="#7D633C" stroke-width="5"/>
</svg>
