<svg width="32" height="32" viewBox="0 0 32 32" fill="none" xmlns="http://www.w3.org/2000/svg">
<path d="M19 29L16 26L19 23" stroke="#5598BE" stroke-width="3" stroke-linecap="round" stroke-linejoin="round"/>
<path d="M24.325 9.40002L23.225 13.5L19.1375 12.4" stroke="#5598BE" stroke-width="3" stroke-linecap="round" stroke-linejoin="round"/>
<path d="M9.87499 17.6L8.77499 13.5L4.67499 14.6" stroke="#5598BE" stroke-width="3" stroke-linecap="round" stroke-linejoin="round"/>
<path d="M16 26H27C27.3505 25.9988 27.6945 25.9055 27.9975 25.7294C28.3006 25.5534 28.5521 25.3008 28.7268 24.997C28.9015 24.6931 28.9933 24.3487 28.993 23.9982C28.9926 23.6478 28.9002 23.3035 28.725 23L26.2375 18.6875" stroke="#5598BE" stroke-width="3" stroke-linecap="round" stroke-linejoin="round"/>
<path d="M23.225 13.5L17.725 3.99995C17.5511 3.69603 17.2999 3.44346 16.997 3.26781C16.6941 3.09215 16.3502 2.99963 16 2.99963C15.6498 2.99963 15.3059 3.09215 15.003 3.26781C14.7001 3.44346 14.4489 3.69603 14.275 3.99995L11.775 8.29995" stroke="#5598BE" stroke-width="3" stroke-linecap="round" stroke-linejoin="round"/>
<path d="M8.77501 13.5L3.27501 23C3.09977 23.3035 3.00736 23.6478 3.00705 23.9982C3.00674 24.3487 3.09853 24.6931 3.27324 24.997C3.44794 25.3008 3.69942 25.5534 4.00248 25.7294C4.30553 25.9055 4.64953 25.9988 5.00001 26H10" stroke="#5598BE" stroke-width="3" stroke-linecap="round" stroke-linejoin="round"/>
</svg>
