<svg width="304" height="172" viewBox="0 0 304 172" fill="none" xmlns="http://www.w3.org/2000/svg">
<path d="M175.947 70.8595C194.596 55.6137 161.27 65.6802 142.276 72.6191C136.329 73.6801 124.354 77.2539 124.03 83.0604C123.624 90.3186 130.397 92.18 136.11 88.8588C141.824 85.5375 152.635 89.9167 175.947 70.8595Z" fill="#FFF6E9" stroke="#EDD8BB" stroke-width="5"/>
<path d="M144.612 46.8669C128.019 56.7606 155.643 52.7063 171.529 49.4425C176.372 49.3023 186.293 47.8799 187.236 43.3122C188.414 37.6027 183.262 35.3274 178.337 37.288C173.413 39.2486 165.354 34.4997 144.612 46.8669Z" fill="#FFF6E9" stroke="#EDD8BB" stroke-width="5"/>
<path d="M177.619 76.6471C155.613 86.4439 181.276 83.9711 197.965 82.4473C205.541 84.8352 218.726 86.0674 220.568 80.5512C222.87 73.656 215.343 65.2579 208.956 66.9574C202.57 68.6569 205.126 64.4011 177.619 76.6471Z" fill="#FFF6E9" stroke="#EDD8BB" stroke-width="5"/>
<path d="M130.709 68.1558L147.795 53.1382C149.101 51.9903 152.451 49.393 155.402 48.1864C159.092 46.6782 151.767 42.5142 147.91 41.8565C144.052 41.1988 139.383 43.568 134.114 45.6934C128.845 47.8188 127.881 50.0149 118.878 59.085C114.684 63.3108 111.913 65.2068 111.813 69.9213C111.713 74.6357 116.306 75.0326 120.421 74.8858C123.713 74.7683 128.651 70.3502 130.709 68.1558Z" fill="#FFF6E9" stroke="#EDD8BB" stroke-width="5"/>
<path d="M204.477 64.3388L217.429 75.6592C218.554 76.5286 225.615 83.8313 227.972 83.6463C232.941 83.2563 227.879 77.864 227.533 75.0154C227.187 72.1668 223.942 69.0533 221.244 65.3716C218.547 61.6899 217.22 61.0268 208.607 55.1131C204.595 52.3578 198.687 47.9513 195.196 48.2053C191.705 48.4593 196.318 54.349 197.311 57.3289C198.106 59.7128 202.42 62.9955 204.477 64.3388Z" fill="#FFF6E9" stroke="#EDD8BB" stroke-width="5"/>
<path d="M196.189 106.478C174.174 116.255 208.976 115.351 229.128 113.677C235.144 114.224 247.638 113.941 249.484 108.427C251.793 101.534 245.753 97.9491 239.365 99.6428C232.977 101.337 223.707 94.2567 196.189 106.478Z" fill="#FFF6E9" stroke="#EDD8BB" stroke-width="5"/>
<path d="M193.268 88.5201C211.885 83.3618 184.171 79.9738 167.987 78.9245C163.28 77.7804 153.335 76.5312 151.219 80.6875C148.574 85.8828 152.943 89.4385 158.21 88.8486C163.477 88.2586 169.996 94.9679 193.268 88.5201Z" fill="#FFF6E9" stroke="#EDD8BB" stroke-width="5"/>
<path d="M169.301 51.0777C193.113 47.4428 167.709 43.0477 151.211 40.1083C144.535 35.8036 132.144 31.1319 128.91 35.9655C124.868 42.0074 129.909 52.0958 136.518 52.144C143.126 52.1922 139.536 55.6213 169.301 51.0777Z" fill="#FFF6E9" stroke="#EDD8BB" stroke-width="5"/>
<path d="M212.301 71.6606L191.855 81.6308C190.292 82.3928 186.375 84.0129 183.209 84.3967C179.252 84.8765 185.217 90.8278 188.764 92.4813C192.31 94.1347 197.439 93.0833 203.083 92.4255C208.727 91.7677 210.236 89.9041 221.315 83.5349C226.477 80.5675 229.65 79.4707 230.992 74.9502C232.334 70.4297 228.009 68.8335 224.002 67.888C220.796 67.1316 214.866 70.0879 212.301 71.6606Z" fill="#FFF6E9" stroke="#EDD8BB" stroke-width="5"/>
<path d="M140.145 55.8527L130.645 41.513C129.789 40.3771 124.909 31.4684 122.586 31.0241C117.691 30.0875 121.149 36.6255 120.73 39.4643C120.311 42.3031 122.618 46.1632 124.247 50.4269C125.876 54.6905 126.981 55.6806 133.725 63.6596C136.867 67.377 141.401 73.1878 144.835 73.8652C148.269 74.5425 145.376 67.6434 145.205 64.5069C145.069 61.9977 141.775 57.6919 140.145 55.8527Z" fill="#FFF6E9" stroke="#EDD8BB" stroke-width="5"/>
<path d="M207.932 38.1819C187.052 55.9364 224.743 43.7509 246.198 35.4388C252.94 34.1008 266.484 29.7715 266.725 23.1588C267.026 14.8928 259.281 12.9243 252.854 16.8285C246.428 20.7326 234.032 15.9888 207.932 38.1819Z" fill="#FFF6E9" stroke="#EDD8BB" stroke-width="5"/>
<path d="M244.107 64.7864C262.766 53.1658 231.429 58.3862 213.429 62.449C207.923 62.7151 196.668 64.5517 195.696 69.7687C194.481 76.2899 200.393 78.7649 205.952 76.4261C211.51 74.0872 220.783 79.3121 244.107 64.7864Z" fill="#FFF6E9" stroke="#EDD8BB" stroke-width="5"/>
<path d="M263.413 113.646L242.967 123.616C241.404 124.378 237.487 125.998 234.321 126.382C230.364 126.862 236.329 132.813 239.875 134.467C243.422 136.12 248.551 135.069 254.195 134.411C259.838 133.753 261.348 131.89 272.427 125.52C277.589 122.553 280.762 121.456 282.104 116.936C283.446 112.415 279.121 110.819 275.114 109.873C271.908 109.117 265.977 112.073 263.413 113.646Z" fill="#FFF6E9" stroke="#EDD8BB" stroke-width="5"/>
<path d="M191.257 97.8382L181.757 83.4985C180.901 82.3626 176.021 73.4539 173.698 73.0096C168.803 72.073 172.261 78.611 171.842 81.4498C171.423 84.2887 173.73 88.1487 175.359 92.4124C176.988 96.676 178.093 97.6661 184.837 105.645C187.979 109.363 192.512 115.173 195.947 115.851C199.381 116.528 196.488 109.629 196.317 106.492C196.18 103.983 192.887 99.6774 191.257 97.8382Z" fill="#FFF6E9" stroke="#EDD8BB" stroke-width="5"/>
<path d="M271.902 97.9586C273.66 125.31 286.413 87.8078 292.57 65.6378C295.526 59.4326 300.149 45.9858 294.991 41.8407C288.543 36.6594 282.337 41.6932 281.626 49.1792C280.916 56.6652 269.705 63.7692 271.902 97.9586Z" fill="#FFF6E9" stroke="#EDD8BB" stroke-width="5"/>
<path d="M295.219 106.772C313.878 95.1513 282.541 100.372 264.541 104.434C259.035 104.701 247.78 106.537 246.808 111.754C245.593 118.275 251.504 120.75 257.063 118.412C262.622 116.073 271.895 121.298 295.219 106.772Z" fill="#FFF6E9" stroke="#EDD8BB" stroke-width="5"/>
<path d="M205.902 31.6346C230.72 20.0051 201.58 23.3832 182.629 25.4841C173.957 22.9345 158.931 21.823 156.957 28.1388C154.49 36.0337 163.238 45.4218 170.466 43.3478C177.694 41.2738 174.879 46.1715 205.902 31.6346Z" fill="#FFF6E9" stroke="#EDD8BB" stroke-width="5"/>
<path d="M259.455 40.2616L240.348 57.7221C238.888 59.0567 235.134 62.0852 231.803 63.5229C227.638 65.3199 236.063 69.8956 240.466 70.5589C244.869 71.2221 250.128 68.4241 256.076 65.8902C262.024 63.3563 263.071 60.8368 273.113 50.3203C277.792 45.4205 280.902 43.2026 280.912 37.8372C280.922 32.4717 275.688 32.1213 271.011 32.379C267.268 32.5851 261.747 37.7199 259.455 40.2616Z" fill="#FFF6E9" stroke="#EDD8BB" stroke-width="5"/>
<path d="M175.618 46.2281L160.636 33.635C159.336 32.6708 151.143 24.5185 148.465 24.7809C142.822 25.3339 148.699 31.3568 149.155 34.5899C149.611 37.8229 153.371 41.2934 156.521 45.4224C159.672 49.5513 161.196 50.2764 171.123 56.8144C175.749 59.8605 182.567 64.7434 186.532 64.3776C190.498 64.0117 185.121 57.413 183.926 54.0449C182.969 51.3504 177.989 47.711 175.618 46.2281Z" fill="#FFF6E9" stroke="#EDD8BB" stroke-width="5"/>
<path d="M215.699 53.6887C240.528 42.0815 200.957 43.8764 178.068 46.2247C171.212 45.734 157.006 46.3311 155.026 52.6452C152.552 60.5379 159.502 64.4827 166.732 62.4152C173.961 60.3477 184.663 68.1978 215.699 53.6887Z" fill="#FFF6E9" stroke="#EDD8BB" stroke-width="5"/>
<path d="M174.506 140.278C154.755 159.281 191.627 144.804 212.531 135.191C219.178 133.441 232.431 128.289 232.266 121.674C232.059 113.405 224.208 111.916 218.033 116.207C211.858 120.498 199.194 116.524 174.506 140.278Z" fill="#FFF6E9" stroke="#EDD8BB" stroke-width="5"/>
<path d="M187.838 18.4723C166.772 24.7503 198.375 27.9944 216.809 28.8317C222.19 30.0297 233.53 31.2318 235.846 26.457C238.74 20.4885 233.693 16.5396 227.713 17.3267C221.734 18.1138 214.171 10.6247 187.838 18.4723Z" fill="#FFF6E9" stroke="#EDD8BB" stroke-width="5"/>
<path d="M169.692 110.873L186.029 90.7976C187.277 89.2632 190.546 85.7166 193.63 83.8056C197.486 81.4169 188.481 78.1271 184.028 78.1171C179.576 78.1072 174.784 81.6467 169.273 85.026C163.761 88.4053 163.095 91.0512 154.705 102.928C150.795 108.461 148.045 111.111 148.822 116.42C149.6 121.729 154.828 121.307 159.417 120.366C163.089 119.613 167.797 113.724 169.692 110.873Z" fill="#FFF6E9" stroke="#EDD8BB" stroke-width="5"/>
<path d="M251.745 92.6682L268.413 102.926C269.84 103.689 279.141 110.551 281.751 109.898C287.253 108.523 280.555 103.428 279.629 100.297C278.704 97.1658 274.475 94.2846 270.753 90.6627C267.031 87.0407 265.417 86.5472 254.637 81.5368C249.615 79.2024 242.155 75.373 238.285 76.3168C234.416 77.2607 240.703 82.9989 242.38 86.1551C243.722 88.68 249.182 91.5492 251.745 92.6682Z" fill="#FFF6E9" stroke="#EDD8BB" stroke-width="5"/>
<path d="M211.003 91.1701C188.146 106.295 227.025 98.7129 249.322 93.031C256.175 92.5103 270.14 89.8349 271.172 83.2986C272.462 75.1283 265.008 72.2461 258.16 75.3522C251.312 78.4583 239.573 72.2637 211.003 91.1701Z" fill="#FFF6E9" stroke="#EDD8BB" stroke-width="5"/>
<path d="M243.73 121.917C263.647 112.615 231.91 114.044 213.553 115.921C208.054 115.526 196.661 116.001 195.071 121.064C193.083 127.392 198.656 130.558 204.455 128.902C210.254 127.246 218.834 133.544 243.73 121.917Z" fill="#FFF6E9" stroke="#EDD8BB" stroke-width="5"/>
<path d="M215.927 60.5397C188.918 65.1991 217.916 69.6397 236.749 72.6204C244.439 77.3704 258.637 82.4122 262.21 76.8423C266.675 69.8799 260.718 58.5141 253.199 58.6048C245.68 58.6955 249.689 54.7154 215.927 60.5397Z" fill="#FFF6E9" stroke="#EDD8BB" stroke-width="5"/>
<path d="M166.557 38.071L189.597 26.2786C191.358 25.3773 195.779 23.448 199.372 22.9416C203.863 22.3087 196.946 15.6697 192.875 13.8668C188.804 12.0639 182.992 13.373 176.586 14.2455C170.181 15.1181 168.505 17.2714 156.041 24.761C150.234 28.2505 146.648 29.5681 145.221 34.7403C143.794 39.9124 148.749 41.633 153.329 42.6204C156.993 43.4103 163.674 39.9165 166.557 38.071Z" fill="#FFF6E9" stroke="#EDD8BB" stroke-width="5"/>
<path d="M248.991 54.4656L260.114 70.5695C261.113 71.8429 266.861 81.8701 269.513 82.3244C275.102 83.2822 271.025 75.9205 271.439 72.6818C271.853 69.4431 269.144 65.1026 267.196 60.288C265.249 55.4735 263.97 54.3715 256.123 45.443C252.467 41.2831 247.181 34.7725 243.259 34.0775C239.338 33.3826 242.78 41.1675 243.044 44.7318C243.255 47.5833 247.096 52.4091 248.991 54.4656Z" fill="#FFF6E9" stroke="#EDD8BB" stroke-width="5"/>
<path d="M125.896 109.262C104.582 120.485 139.246 117.262 159.242 114.249C165.281 114.394 177.728 113.279 179.203 107.653C181.047 100.622 174.782 97.4477 168.521 99.5635C162.26 101.679 152.538 95.2332 125.896 109.262Z" fill="#FFF6E9" stroke="#EDD8BB" stroke-width="5"/>
<path d="M151.82 139.018C170.052 132.63 142.174 131.097 125.956 131.129C121.183 130.302 111.177 129.718 109.343 134.006C107.05 139.366 111.646 142.623 116.862 141.683C122.078 140.743 129.029 147.003 151.82 139.018Z" fill="#FFF6E9" stroke="#EDD8BB" stroke-width="5"/>
<path d="M125.411 103.257C148.927 98.0427 123.287 95.3509 106.629 93.5178C99.6809 89.6678 87.0066 85.8324 84.1022 90.8708C80.4716 97.1688 86.174 106.899 92.7711 106.506C99.3682 106.114 96.0148 109.775 125.411 103.257Z" fill="#FFF6E9" stroke="#EDD8BB" stroke-width="5"/>
<path d="M169.687 120.928L149.951 132.239C148.442 133.103 144.642 134.981 141.509 135.575C137.593 136.317 143.941 141.858 147.59 143.271C151.239 144.684 156.286 143.293 161.874 142.261C167.461 141.228 168.842 139.268 179.473 132.175C184.425 128.87 187.518 127.564 188.556 122.964C189.593 118.364 185.172 117.06 181.11 116.383C177.861 115.842 172.141 119.187 169.687 120.928Z" fill="#FFF6E9" stroke="#EDD8BB" stroke-width="5"/>
<path d="M96.638 109.965L86.2031 96.2904C85.2733 95.2141 79.8097 86.6506 77.463 86.362C72.5163 85.7538 76.4018 92.0469 76.1731 94.9073C75.9444 97.7677 78.5033 101.465 80.4133 105.611C82.3233 109.757 83.4915 110.671 90.7521 118.182C94.1349 121.682 99.0459 127.178 102.518 127.625C105.989 128.072 102.643 121.381 102.264 118.263C101.96 115.768 98.3867 111.691 96.638 109.965Z" fill="#FFF6E9" stroke="#EDD8BB" stroke-width="5"/>
<path d="M113.159 70.3234C136.681 65.1303 102.397 59.0799 82.3156 56.7038C76.5296 54.968 64.2304 52.7553 61.3215 57.7911C57.6853 64.0858 62.8896 68.8022 69.487 68.4157C76.0844 68.0291 83.7577 76.8147 113.159 70.3234Z" fill="#FFF6E9" stroke="#EDD8BB" stroke-width="5"/>
<path d="M112.443 88.5031C93.1704 89.8471 119.653 98.691 135.303 102.945C139.688 105.004 149.184 108.211 152.086 104.559C155.713 99.9955 152.142 95.6405 146.862 95.1687C141.583 94.697 136.533 86.8231 112.443 88.5031Z" fill="#FFF6E9" stroke="#EDD8BB" stroke-width="5"/>
<path d="M128.465 129.971C104.406 128.787 128.425 138.157 144.006 144.326C149.691 149.875 160.901 156.923 165.034 152.831C170.199 147.716 167.27 136.825 160.804 135.46C154.337 134.096 158.539 131.451 128.465 129.971Z" fill="#FFF6E9" stroke="#EDD8BB" stroke-width="5"/>
<path d="M90.4307 101.231L112.454 95.5358C114.137 95.1005 118.298 94.2937 121.477 94.5485C125.451 94.867 120.792 87.8463 117.646 85.5192C114.5 83.192 109.264 83.2 103.603 82.7197C97.9412 82.2395 96.0908 83.7649 83.9641 87.798C78.3142 89.677 74.9865 90.1194 72.7704 94.2817C70.5543 98.4441 74.4741 100.87 78.2126 102.595C81.2034 103.976 87.6042 102.261 90.4307 101.231Z" fill="#FFF6E9" stroke="#EDD8BB" stroke-width="5"/>
<path d="M157.988 131.103L164.439 147.049C165.052 148.332 168.059 158.035 170.246 158.933C174.856 160.827 172.771 153.731 173.747 151.032C174.724 148.334 173.233 144.092 172.486 139.589C171.739 135.086 170.854 133.896 165.836 124.733C163.498 120.463 160.213 113.866 156.983 112.517C153.753 111.169 155.212 118.506 154.754 121.614C154.388 124.1 156.757 128.976 157.988 131.103Z" fill="#FFF6E9" stroke="#EDD8BB" stroke-width="5"/>
<path d="M88.0393 134.908C112.039 121.672 72.6759 126.101 49.9944 129.97C43.1211 129.937 28.9859 131.48 27.4316 137.912C25.4887 145.952 32.6863 149.425 39.7622 146.88C46.8381 144.335 58.0397 151.454 88.0393 134.908Z" fill="#FFF6E9" stroke="#EDD8BB" stroke-width="5"/>
<path d="M57.8928 101.628C37.292 109.296 69.0404 110.426 87.4897 110.033C92.9382 110.869 104.333 111.313 106.326 106.394C108.816 100.246 103.516 96.6425 97.6027 97.8264C91.6892 99.0104 83.6437 92.0421 57.8928 101.628Z" fill="#FFF6E9" stroke="#EDD8BB" stroke-width="5"/>
<path d="M48.7127 49.9003L70.7358 44.2054C72.4191 43.7701 76.5804 42.9633 79.7591 43.2181C83.7325 43.5366 79.0736 36.5159 75.9277 34.1888C72.7818 31.8616 67.546 31.8696 61.8846 31.3894C56.2232 30.9091 54.3728 32.4345 42.2461 36.4676C36.5962 38.3466 33.2685 38.789 31.0524 42.9514C28.8363 47.1137 32.7561 49.5398 36.4946 51.265C39.4854 52.6452 45.8862 50.9303 48.7127 49.9003Z" fill="#FFF6E9" stroke="#EDD8BB" stroke-width="5"/>
<path d="M116.27 79.7727L122.721 95.7182C123.334 97.0019 126.341 106.705 128.528 107.603C133.138 109.496 131.053 102.4 132.029 99.702C133.006 97.0037 131.515 92.7613 130.768 88.2584C130.021 83.7555 129.136 82.5651 124.118 73.4021C121.78 69.133 118.495 62.5352 115.265 61.187C112.035 59.8388 113.494 67.176 113.036 70.2836C112.67 72.7697 115.039 77.6455 116.27 79.7727Z" fill="#FFF6E9" stroke="#EDD8BB" stroke-width="5"/>
<path d="M34.16 59.5689C35.5825 32.1979 18.5707 67.9704 9.887 89.2779C6.23199 95.099 0.0827603 107.92 4.72587 112.634C10.5298 118.528 17.278 114.247 18.8506 106.893C20.4233 99.5401 32.3819 93.7826 34.16 59.5689Z" fill="#FFF6E9" stroke="#EDD8BB" stroke-width="5"/>
<path d="M16.1748 50.2972C-4.42599 57.9656 27.3224 59.0958 45.7717 58.7024C51.2202 59.5389 62.6154 59.9825 64.6076 55.0639C67.0979 48.9157 61.7982 45.3121 55.8847 46.496C49.9712 47.68 41.9257 40.7117 16.1748 50.2972Z" fill="#FFF6E9" stroke="#EDD8BB" stroke-width="5"/>
<path d="M88.7236 141.729C62.0854 148.179 91.3141 150.676 110.304 152.395C118.294 156.622 132.796 160.706 135.99 154.91C139.981 147.665 133.28 136.722 125.783 137.314C118.287 137.906 122.021 133.667 88.7236 141.729Z" fill="#FFF6E9" stroke="#EDD8BB" stroke-width="5"/>
<path d="M37.9651 122.601L60.1682 109.299C61.8652 108.283 66.1471 106.063 69.6983 105.318C74.1373 104.387 66.7935 98.2241 62.6113 96.6966C58.429 95.1692 52.7173 96.8627 46.384 98.1603C40.0508 99.458 38.5221 101.718 26.5851 110.022C21.0235 113.891 17.5342 115.445 16.455 120.7C15.3758 125.956 20.4344 127.343 25.0697 128.022C28.778 128.566 35.2117 124.635 37.9651 122.601Z" fill="#FFF6E9" stroke="#EDD8BB" stroke-width="5"/>
<path d="M121.308 133.464L133.48 148.791C134.562 149.995 140.966 159.617 143.642 159.893C149.283 160.476 144.724 153.403 144.921 150.144C145.118 146.884 142.126 142.734 139.862 138.06C137.598 133.386 136.248 132.372 127.823 123.986C123.898 120.079 118.19 113.936 114.231 113.504C110.272 113.072 114.225 120.61 114.726 124.149C115.126 126.98 119.281 131.539 121.308 133.464Z" fill="#FFF6E9" stroke="#EDD8BB" stroke-width="5"/>
<path d="M83.5186 118.165C56.8746 124.59 96.0092 130.718 118.907 132.979C125.527 134.827 139.568 137.073 142.766 131.28C146.764 124.039 140.74 118.788 133.243 119.373C125.746 119.958 116.824 110.133 83.5186 118.165Z" fill="#FFF6E9" stroke="#EDD8BB" stroke-width="5"/>
<path d="M103.801 158.228C125.696 156.274 95.3743 146.796 77.4766 142.302C72.4427 140.055 61.5696 136.617 58.3487 140.835C54.3225 146.106 58.4818 150.982 64.498 151.403C70.5142 151.823 76.4328 160.669 103.801 158.228Z" fill="#FFF6E9" stroke="#EDD8BB" stroke-width="5"/>
<path d="M140.001 71.2978L119.99 87.7141C118.461 88.9689 114.551 91.7928 111.147 93.0507C106.893 94.623 115.062 99.6417 119.423 100.539C123.784 101.436 129.185 98.9227 135.26 96.7097C141.334 94.4966 142.514 92.0366 153.104 82.0709C158.037 77.4278 161.261 75.3789 161.557 70.0216C161.853 64.6644 156.646 64.0352 151.961 64.043C148.213 64.0491 142.426 68.8821 140.001 71.2978Z" fill="#FFF6E9" stroke="#EDD8BB" stroke-width="5"/>
<path d="M55.9658 72.783L41.6764 59.4086C40.4299 58.3763 32.6833 49.7986 29.9956 49.9177C24.3303 50.1688 29.8778 56.4967 30.161 59.7495C30.4442 63.0023 34.0133 66.6684 36.9388 70.9596C39.8643 75.2507 41.3477 76.0561 50.9123 83.1144C55.3685 86.403 61.9161 91.6426 65.8959 91.4889C69.8756 91.3352 64.8584 84.459 63.844 81.0319C63.0325 78.2902 58.2537 74.3903 55.9658 72.783Z" fill="#FFF6E9" stroke="#EDD8BB" stroke-width="5"/>
<path d="M95.5916 82.3714C121.004 72.1054 81.394 71.7865 58.4123 72.9103C51.5924 72.0545 37.3742 71.8929 35.0605 78.0924C32.1684 85.8417 38.8982 90.1517 46.228 88.4729C53.5578 86.7941 63.8258 95.204 95.5916 82.3714Z" fill="#FFF6E9" stroke="#EDD8BB" stroke-width="5"/>
<path d="M69.6493 45.7187C48.2782 50.8639 79.6625 55.7894 98.0261 57.609C103.335 59.0923 114.595 60.8978 117.162 56.2533C120.371 50.4477 115.541 46.2352 109.529 46.7021C103.516 47.1691 96.3631 39.2872 69.6493 45.7187Z" fill="#FFF6E9" stroke="#EDD8BB" stroke-width="5"/>
<path d="M84.6606 111.406C112.056 112.223 84.526 102.092 66.6647 95.4174C60.0759 89.2299 47.1673 81.4593 42.5563 86.2055C36.7926 92.1382 40.3647 104.463 47.751 105.873C55.1373 107.283 50.4159 110.384 84.6606 111.406Z" fill="#FFF6E9" stroke="#EDD8BB" stroke-width="5"/>
<path d="M128.562 143.264L103.634 150.227C101.728 150.76 97.0121 151.769 93.3903 151.549C88.8631 151.274 94.3178 159.159 97.9478 161.737C101.578 164.315 107.534 164.191 113.985 164.612C120.436 165.034 122.508 163.258 136.214 158.403C142.601 156.141 146.376 155.564 148.806 150.78C151.235 145.996 146.723 143.323 142.432 141.442C138.999 139.938 131.755 142.03 128.562 143.264Z" fill="#FFF6E9" stroke="#EDD8BB" stroke-width="5"/>
<path d="M51.0502 110.768L43.3599 92.7702C42.6349 91.3232 39.0005 80.3515 36.4926 79.3777C31.2062 77.3252 33.7343 85.3518 32.683 88.443C31.6317 91.5342 33.4214 96.3276 34.3702 101.434C35.3191 106.54 36.3522 107.875 42.2627 118.188C45.0164 122.993 48.8983 130.427 52.6027 131.889C56.3071 133.352 54.4853 125.037 54.9375 121.492C55.2994 118.655 52.4967 113.161 51.0502 110.768Z" fill="#FFF6E9" stroke="#EDD8BB" stroke-width="5"/>
</svg>
